Patient4_TMGait_0pt3_03_left_03_EMG.mot
version=1
nRows=26
nColumns=33
inDegrees=no
endheader
time	1LAddLong	2LGlutMax	3LGlutMed	4LIliopsoas	5LSemiMemb	6LBicFemLong	7LRecFem	8LVastMed	9LVastLat	10LGasMed	11LTibAnt	12lTibPost	13LPeroneusLong	14LSol	15LExtDigLong	16LFlexDigLong	17RAddLong	18RGlutMax	19RGlutMed	20RIliopsoas	21RSemiMemb	22RBicFemLong	23RRecFem	24RVastMed	25RVastLat	26RGasMed	27RTibAnt	28RTibPost	29RPeroneusLong	30RSol	31RExtDigLong	32RFlexDigLong
6.49	0.010376	-0.12833	0.037384	-0.005493	-0.020905	-0.02655	0.045929	0.003967	-0.015564	-0.007935	0.011749	-0.005188	0.024109	-0.009918	0.078125	-0.004578	0.019226	0.055084	-0.1236	-0.25253	0.044403	-0.058136	0.21866	-0.20187	-0.077972	-0.028992	0.33569	-0.002747	1.3837	0.1947	0.001068	-0.015564
6.491	0.006866	-0.15182	0.022888	-0.000458	-0.030212	-0.028076	0.044403	0.002594	-0.009766	-0.000153	-0.012054	0.006866	0.019073	-0.056305	0.015259	-0.008392	0.016937	-0.016174	-0.802	-0.073853	0.033264	-0.079346	0.17487	-0.16174	0.058289	-0.013428	0.16541	-0.002594	2.6907	-0.026855	0.001526	-0.011139
6.492	0.014038	-0.15427	-0.034637	-0.005035	-0.039215	-0.028687	0.0354	0.003662	-0.023956	0.012665	-0.06958	-0.009003	0.01236	-0.04425	0.007782	0.00473	0.00946	0.084381	-0.48614	0.1973	0.034332	-0.056915	0.026093	0.56397	0.33478	-0.01236	0.17975	-0.003815	1.032	-0.052795	0.000153	-0.011902
6.493	0.011902	-0.11688	-0.069275	0.011292	-0.006409	-0.027008	0.049896	0.004272	-0.014038	-0.017395	-0.028687	0.001221	0.024109	-0.032196	0.11887	0.001068	0.011292	0.090942	-0.62683	0.43701	0.02243	-0.040894	0.023651	0.60623	0.2655	0.012054	0.090637	0.00061	0.1265	-0.062103	-0.00061	-0.001526
6.494	0.012512	-0.15305	-0.051575	0.005341	0.007019	-0.046844	0.039368	-0.001068	-0.005798	-0.037689	0.03952	0.00946	0.041199	-0.020905	0.13107	-0.000458	0.019836	0.098724	-0.65659	0.30624	-0.015106	-0.11078	0.09552	0.35614	0.39383	0.008545	-0.097961	-0.002899	-1.333	-0.044403	-0.001373	0.005341
6.495	0.007172	-0.12772	-0.089569	0.018311	-0.001831	-0.048828	0.041199	0	-0.015869	-0.027008	0.068207	0.006866	0.041809	-0.019226	0.077667	0.016022	0.02182	0.14496	0.79514	0.11795	0.000458	-0.12787	-0.11322	0.002899	0.62683	0.006866	-0.13153	-0.005646	-2.757	-0.006714	-0.001984	0.007477
6.496	0.019836	-0.092926	-0.098419	0.024872	0.01297	-0.075989	0.034485	0.002289	-0.005188	-0.012512	-0.009003	0.00412	0.026855	-0.051727	0.081024	0.005341	0.010071	0.19455	1.1171	0.025787	0.001526	-0.043335	-0.26047	-0.33676	0.62744	0.006714	-0.077209	-0.001221	-1.3184	-0.23636	0.009613	-0.000916
6.497	0.006104	-0.1648	-0.10559	0.024567	0.007782	-0.055695	0.035706	-0.000305	-0.005646	-0.020294	-0.018768	-0.002594	0.024414	-0.016785	0.044098	-0.003204	0.002289	0.034332	-0.054474	0.11368	0.009766	0.019073	-0.38925	-0.53543	0.75607	-0.009766	-0.067291	-0.001526	0.45075	-0.084686	-0.000458	-0.006409
6.498	0.011749	-0.11673	-0.050049	-0.001526	0.004578	-0.058136	0.036011	-0.004578	-0.000916	-0.018158	-0.003967	0.000916	0.049286	-0.010223	-0.065155	-0.003052	0.009918	0.028381	-0.041962	0.09903	-0.011902	0.045166	0.056915	-0.56946	0.47516	-0.015564	-0.19882	-0.009766	1.8465	0.13229	-0.001831	-0.011597
6.499	0.007629	-0.10757	0.037537	-0.008545	0.006256	-0.049591	0.024872	0.00351	0.011749	-0.009003	0.020752	-0.000763	0.003357	-0.012512	0.30304	-0.009003	0.008545	0.1355	-0.50858	-0.006104	-0.014038	0.057526	0.16968	-0.30548	0.38818	-0.02121	-0.065308	-0.007629	1.1505	0.20248	0.000153	-0.016022
6.5	0.005798	-0.093994	0.097198	-0.014191	0.006256	-0.031281	0.017242	0.003204	-0.019989	-0.015106	0.028229	-0.000305	-0.003357	-0.013733	0.041046	0.003662	0.02655	0.16022	0.22995	-0.054932	-0.019836	0.055237	0.13596	-0.087128	0.13229	-0.018921	0.019073	-0.009766	0.18005	0.2356	0	-0.014648
6.501	0.009003	-0.11108	0.10086	-0.013123	0.005035	-0.009766	0.017853	-0.004578	-0.010071	-0.03418	0.083313	0.001984	0.03006	0.010376	0.22522	0.010529	0.02243	0.18555	0.091248	-0.12009	-0.012665	0.065765	0.031738	0.006409	-0.18921	-0.016022	0.028534	-0.01297	0.46219	0.10788	0.001526	-0.016785
6.502	0.004883	-0.12421	0.051727	0.009613	-0.011139	-0.008392	0.014954	0.00351	-0.020142	-0.05127	0.24628	-0.011292	0.038605	0.065613	0.48126	0.008087	0.007477	0.18295	-0.098114	-0.1294	-0.008545	0.009613	-0.001678	-0.002594	-0.50919	-0.017395	0.14465	-0.009003	-0.07431	0.046387	0.002136	-0.015564
6.503	0.007019	-0.12344	0.016632	-0.00351	-0.001373	0.019531	0.006866	0.010529	-0.025482	-0.026398	0.23636	-0.001678	0.007782	0.042725	-0.11932	0.01236	0.011597	0.12299	-0.25101	-0.11688	-0.006714	-0.030823	0.040741	-0.27374	-0.7988	-0.019073	0.19592	-0.013123	-0.44159	-0.000916	0.000153	-0.010681
6.504	0.005798	-0.10849	-0.003662	0.016174	-0.000458	0.002594	0.025482	-0.00061	-0.009613	-0.0177	-0.062408	0.003204	-0.010529	0.014343	-0.12131	0.005341	-0.000763	0.12772	-0.28137	-0.22369	-0.017853	-0.03067	-0.25772	0.046082	-0.95108	-0.015259	0.050812	-0.00351	-0.28686	-0.032349	0.001831	-0.014648
6.505	0.005493	-0.09079	-0.008392	-0.001678	-0.005798	-0.019684	0.023651	0.003815	-0.021362	-0.006714	-0.003204	0.011749	-0.021667	0.027924	-0.20294	-0.002899	0.002594	0.22629	-0.39658	-0.31784	-0.007935	-0.010986	-0.26764	0.31113	-0.84152	-0.010223	0.085297	-0.011292	-0.52933	-0.17838	-0.00061	-0.009766
6.506	0.001526	-0.091858	-0.00351	0.005035	-0.003357	-0.012817	0.009918	0.007935	-0.007629	-0.008087	0.057831	-0.000763	-0.012207	-0.037384	-0.36179	0.004272	-0.009308	0.19974	-0.38757	-0.2063	0.00412	-0.002289	-0.159	0.46402	-0.61996	0.003662	0.39063	-0.011139	0.40985	-0.19531	-0.001221	-0.009766
6.507	0.000763	-0.089569	0.004578	0.01297	-0.006714	0.003204	0.027924	0.006104	-0.007172	-0.017395	0.03006	0.003052	0.062103	-0.08606	-0.44617	0.001068	0.002747	0.25299	0.57663	-0.10742	0.001678	-0.021362	-0.028229	0.2977	-0.44846	0.009308	0.76233	-0.015717	0.46493	-0.28686	-0.001373	-0.013428
6.508	0.00824	-0.06546	-0.014648	0.010071	-0.006409	0.002747	0.005798	0.00351	-0.004425	-0.019684	-0.019073	0.00885	0.087128	-0.087585	-0.17838	-0.005493	0.031281	0.2562	1.0199	0.011597	-0.018921	-0.061798	0.11398	0.095978	-0.2092	0.009003	0.24231	-0.01297	-0.43793	-0.34668	-0.002899	-0.006561
6.509	0.009766	-0.070343	-0.036163	-0.002594	-0.002441	-0.003815	0.010071	0.001068	0.005646	-0.019379	-0.15991	0.017548	0.088196	-0.069275	-0.099792	-0.007324	0.01358	0.30289	1.0092	0.14084	-0.016937	-0.057068	-0.007629	0.15121	-0.014648	0.002899	-0.47775	-0.01236	-0.44205	-0.10727	-0.001984	-0.004883
6.51	0.005798	-0.044861	-0.026398	0.007019	-0.004883	0.000916	0.005341	0.00473	-0.002594	-0.034027	-0.18601	-0.009308	0.11185	-0.011139	-0.006256	0.002441	0.019073	0.27679	0.35889	0.289	0.003815	-0.029297	-0.19806	0.090332	0.021362	0.00061	-1.0847	-0.014954	0.11841	0.056458	-0.002136	0.001831
6.511	0.003967	-0.042725	-0.032959	-0.000763	-0.003052	0.027466	-0.00412	0.004272	-0.015717	-0.014496	-0.066223	0.007172	0.034485	-0.058289	0.12665	-0.004578	0.015564	0.24216	-0.35507	0.30212	-0.001221	-0.043793	-0.26871	0.002747	0.036926	-0.001526	-0.34698	-0.011749	0.14587	-0.10513	0.001831	-0.002899
6.512	0.016174	-0.072632	-0.027161	0.013733	-0.001221	0.010834	-0.012054	-0.006256	-0.007019	0.004578	-0.037079	0.008392	0.000305	-0.0383	0.10819	0.00412	0.014648	0.20355	-0.24704	0.2182	-0.015564	-0.038452	-0.16525	-0.14816	0.002594	-0.002136	0.43366	-0.010834	0.018616	-0.1561	0.004272	-0.009155
6.513	0.004425	-0.081177	0.000305	-0.000305	-0.008392	0.016937	-0.005951	0.001221	-0.0177	-0.003204	-0.10452	-0.000153	0.040436	-0.018768	0.050812	0.006104	0.02182	0.16464	-0.36163	0.17029	0.000763	-0.05249	-0.1471	-0.085754	0.003357	-0.00061	0.26001	-0.013885	-0.31403	-0.083771	-0.003052	-0.007324
6.514	0.006866	-0.063019	0.005493	0.009766	-0.007782	-0.001678	-0.023193	0.002136	-0.031738	-0.00061	0.00061	-0.001831	0.018311	0.006714	0.13107	-0.008698	0.015717	0.18539	-0.17838	0.076447	0.006409	-0.043793	-0.10788	0.022888	0.12405	-0.001526	-0.076141	-0.015411	-0.3746	0.11169	-0.001221	-0.009155
6.515	0.00824	-0.06546	-0.004883	0.007477	-0.00351	-0.006256	-0.015564	-0.002289	-0.032654	0.000916	0.004272	0.001373	0.005798	-0.041656	0.10132	-0.007019	0.011597	0.14557	0.52719	0.039215	-0.017548	-0.052338	0.11185	-0.058136	0.15518	-0.007172	-0.13718	-0.017242	0.035095	0.30594	0.000153	-0.011749
